<svg id="Layer_1" data-name="Layer 1" xmlns="http://www.w3.org/2000/svg" viewBox="0 0 45 45"><defs><style>.cls-1{fill:#d5e6ec;}.cls-10,.cls-12,.cls-13,.cls-16,.cls-2,.cls-4,.cls-6,.cls-7,.cls-8,.cls-9{fill:none;}.cls-2{stroke:#fff;}.cls-13,.cls-2{stroke-width:2px;}.cls-3{fill:#b8b6a7;}.cls-10,.cls-13,.cls-16,.cls-4,.cls-6,.cls-8,.cls-9{stroke:#464646;}.cls-10,.cls-13,.cls-16,.cls-4,.cls-9{stroke-linecap:round;}.cls-16,.cls-4{stroke-linejoin:round;}.cls-4,.cls-7,.cls-8{stroke-width:1.01px;}.cls-5{fill:#736e50;}.cls-12,.cls-7{stroke:#c48e29;}.cls-9{stroke-width:2.53px;}.cls-10{stroke-width:1.5px;}.cls-11{fill:#c48e29;}.cls-12{stroke-width:0.4px;}.cls-14{fill:#464646;}.cls-15{fill:#585858;}</style></defs><title>Chatbot_happy</title><path class="cls-1" d="M22.5,44A21.5,21.5,0,1,1,44,22.5,21.5,21.5,0,0,1,22.5,44"/><circle class="cls-2" cx="22.5" cy="22.5" r="21.5"/><path class="cls-3" d="M7.26,36.92h30.6S29.24,44,22.75,44s-11-3-15.49-7.06"/><path class="cls-3" d="M31.23,15a1,1,0,0,1,1,1V29.31a1,1,0,0,1-1,1h-17a1,1,0,0,1-1-1V16a1,1,0,0,1,1-1Z"/><path class="cls-4" d="M31.23,15a1,1,0,0,1,1,1V29.31a1,1,0,0,1-1,1h-17a1,1,0,0,1-1-1V16a1,1,0,0,1,1-1Z"/><path class="cls-3" d="M7.34,37.86V33.38a.88.88,0,0,1,.91-.89h29a.88.88,0,0,1,.91.89v4"/><path class="cls-4" d="M7.34,37.86V33.38a.88.88,0,0,1,.91-.89h29a.88.88,0,0,1,.91.89v4"/><polygon class="cls-3" points="27.04 30.41 27.04 30.41 27.04 32.35 18.45 32.35 18.45 30.41 27.04 30.41"/><polygon class="cls-4" points="27.04 30.41 27.04 30.41 27.04 32.35 18.45 32.35 18.45 30.41 27.04 30.41"/><polygon class="cls-3" points="34.97 20.65 34.97 24.63 32.34 25.54 32.34 19.73 34.97 20.65"/><polygon class="cls-4" points="34.97 20.65 34.97 24.63 32.34 25.54 32.34 19.73 34.97 20.65"/><path class="cls-5" d="M20.06,39.61a2,2,0,1,1,2-2,2,2,0,0,1-2,2"/><circle class="cls-6" cx="20.06" cy="37.61" r="2"/><path class="cls-5" d="M14,39.61a2,2,0,1,1,2-2,2,2,0,0,1-2,2"/><circle class="cls-6" cx="14.02" cy="37.61" r="2"/><line class="cls-7" x1="22.78" y1="14.68" x2="22.78" y2="12.64"/><path class="cls-5" d="M37.14,22.77A1.25,1.25,0,1,1,38.38,24a1.26,1.26,0,0,1-1.25-1.26"/><ellipse class="cls-6" cx="38.38" cy="22.77" rx="1.25" ry="1.26"/><line class="cls-6" x1="35.05" y1="22.77" x2="37.1" y2="22.77"/><path class="cls-5" d="M8.35,22.77a1.25,1.25,0,1,1-1.25-1.26,1.26,1.26,0,0,1,1.25,1.26"/><ellipse class="cls-6" cx="7.11" cy="22.77" rx="1.25" ry="1.26"/><line class="cls-8" x1="10.44" y1="22.77" x2="8.4" y2="22.77"/><line class="cls-9" x1="33.36" y1="37.52" x2="24.98" y2="37.52"/><line class="cls-9" x1="29.39" y1="41.55" x2="24.97" y2="41.55"/><line class="cls-10" x1="32.49" y1="41.16" x2="27.37" y2="41.16"/><polygon class="cls-3" points="10.52 20.65 10.52 24.63 13.15 25.54 13.15 19.73 10.52 20.65"/><polygon class="cls-4" points="10.52 20.65 10.52 24.63 13.15 25.54 13.15 19.73 10.52 20.65"/><path class="cls-11" d="M22.78,12.63a1.28,1.28,0,1,1,1.29-1.27,1.28,1.28,0,0,1-1.29,1.27"/><ellipse class="cls-12" cx="22.78" cy="11.35" rx="1.29" ry="1.28"/><path class="cls-13" d="M25.79,25.82a5.87,5.87,0,0,1-3,1,5.87,5.87,0,0,1-3-1"/><path class="cls-14" d="M12.75,16c0-2.85,4.48-5.16,10-5.16s10,2.31,10,5.16"/><polygon class="cls-15" points="23.79 5.73 37.13 12.38 22.83 16.61 9.47 9.95 23.79 5.73"/><polygon class="cls-16" points="23.79 5.73 37.13 12.38 22.83 16.61 9.47 9.95 23.79 5.73"/><polyline class="cls-16" points="23.24 10.78 34.6 13.13 34.63 17.84"/><path class="cls-14" d="M34.62,17.47a1,1,0,1,0-1-1,1,1,0,0,0,1,1"/><path class="cls-14" d="M34.62,19.23a1,1,0,0,0,1-1c0-.57-.46-2-1-2s-1,1.39-1,2a1,1,0,0,0,1,1"/><circle class="cls-2" cx="22.5" cy="22.5" r="21.5"/><path class="cls-10" d="M29.85,21.45a1.63,1.63,0,0,0-3.25,0"/><path class="cls-10" d="M18.87,21.45a1.63,1.63,0,0,0-3.25,0"/></svg>