<?xml version="1.0" encoding="UTF-8"?>
<svg width="50px" height="50px" viewBox="0 0 50 50" version="1.1" xmlns="http://www.w3.org/2000/svg" xmlns:xlink="http://www.w3.org/1999/xlink">
    <!-- Generator: Sketch 44 (41411) - http://www.bohemiancoding.com/sketch -->
    <title>icon/subject/science</title>
    <desc>Created with Sketch.</desc>
    <defs></defs>
    <g id="Symbols" stroke="none" stroke-width="1" fill="none" fill-rule="evenodd">
        <g id="icon/subject/science">
            <g id="Page-1" transform="translate(11.000000, 5.000000)">
                <polyline id="Stroke-3" stroke="#FFFFFF" stroke-width="2" stroke-linecap="round" points="20.5898 12.71 13.5498 12.71 14.4498 12.71 7.4098 12.71"></polyline>
                <path d="M17.7002,13.46 L17.7002,20.81 L26.6202,33.81 C26.6202,33.81 28.6202,36.55 26.1202,38.54 C25.3852,39.264 24.3912,39.667 23.3602,39.66 L13.5602,39.66 M10.2902,13.42 L10.2902,20.77 L1.3702,33.77 C1.3702,33.77 -0.6298,36.51 1.8702,38.5 C2.6052,39.224 3.5982,39.627 4.6302,39.62 L14.4302,39.62" id="Stroke-5" stroke="#FFFFFF" stroke-width="2"></path>
                <path d="M13.2002,27.54 L17.4002,27.54 M13.2002,23.85 L17.4002,23.85 M13.2002,20.16 L17.4002,20.16 M13.2002,16.35 L17.4002,16.35" id="Stroke-7" stroke="#FFFFFF" stroke-width="1.39"></path>
                <polygon id="Fill-9" fill="#FFFFFF" points="15.79 13.1699 15.79 30.4599 7.89 30.4599 2.83 38.2399 7.02 39.2199 16.65 39.0999 20.85 39.0999 23.94 38.8499 26.16 37.6199 26.53 35.8899 25.42 32.4299 19.12 23.4199 17.64 21.0799 17.269 14.8999 17.4 13.0499"></polygon>
                <polygon id="Stroke-11" stroke="#FFFFFF" stroke-width="1.39" points="15.7598 13 15.7598 30.51 7.7198 30.51 2.5698 38.39 6.8398 39.39 16.6398 39.26 20.9198 39.26 24.0598 39.01 26.3208 37.76 26.6998 36.01 25.5708 32.51 19.1598 23.38 17.6508 21 17.2698 14.75 17.4008 12.87"></polygon>
                <path d="M9.4902,6.5098 C9.4902,7.6698 10.4302,8.6098 11.5902,8.6098 C12.7502,8.6098 13.6902,7.6698 13.6902,6.5098 C13.6902,5.3498 12.7502,4.4098 11.5902,4.4098 C10.4432,4.4418 9.5212,5.3638 9.4902,6.5098" id="Fill-13" fill="#FFFFFF"></path>
                <path d="M13.4399,10.8301 C13.4399,11.6471 14.1029,12.3101 14.9199,12.3101 C15.7369,12.3101 16.3999,11.6471 16.3999,10.8301 C16.3999,10.0131 15.7369,9.3501 14.9199,9.3501 C14.1069,9.3611 13.4509,10.0171 13.4399,10.8301" id="Fill-15" fill="#FFFFFF"></path>
                <path d="M15.4199,4.5298 C15.4199,5.1428 15.9169,5.6398 16.5299,5.6398 C17.1429,5.6398 17.6399,5.1428 17.6399,4.5298 C17.6399,3.9168 17.1429,3.4198 16.5299,3.4198 C15.9169,3.4198 15.4199,3.9168 15.4199,4.5298" id="Fill-17" fill="#FFFFFF"></path>
                <path d="M12.8301,1.5698 C12.8301,2.1218 13.2781,2.5698 13.8301,2.5698 C14.3821,2.5698 14.8301,2.1218 14.8301,1.5698 C14.8301,1.0178 14.3821,0.5698 13.8301,0.5698 C13.2781,0.5698 12.8301,1.0178 12.8301,1.5698" id="Fill-19" fill="#FFFFFF"></path>
            </g>
        </g>
    </g>
</svg>