<?xml version="1.0" encoding="utf-8"?>
<!-- Generator: Adobe Illustrator 21.1.0, SVG Export Plug-In . SVG Version: 6.00 Build 0)  -->
<svg version="1.1" id="Layer_1" xmlns="http://www.w3.org/2000/svg" xmlns:xlink="http://www.w3.org/1999/xlink" x="0px" y="0px"
	 width="50px" height="50px" viewBox="0 0 50 50" style="enable-background:new 0 0 50 50;" xml:space="preserve">
<style type="text/css">
	.st0{fill:#FFFFFF;}
	.st1{fill:none;stroke:#FFFFFF;stroke-width:2;}
	.st2{enable-background:new    ;}
</style>
<title>icon/subject/computer_science</title>
<desc>Created with Sketch.</desc>
<g id="Symbols">
	<g id="icon_x2F_subject_x2F_computer_x5F_science">
		<g id="Page-1" transform="translate(5.000000, 6.000000)">
			<polygon id="Fill-3" class="st0" points="16.5,30.4 16.5,37.6 23.5,37.6 23.5,30.6 			"/>
			<path id="Fill-5" class="st0" d="M12.4,34.9h15.9c0.8,0,1.4,0.6,1.4,1.4V37c0,0.8-0.6,1.4-1.4,1.4H12.4c-0.8,0-1.4-0.6-1.4-1.4
				v-0.7C11,35.5,11.6,34.9,12.4,34.9"/>
			<path id="Stroke-7" class="st1" d="M39.9,27.3c0,1.7-1.3,3-3,3H3.1c-1.7,0-3-1.3-3-3V8.4c0-1.7,1.3-3,3-3h33.9c1.7,0,3,1.3,3,3
				L39.9,27.3z"/>
			<path id="Fill-9" class="st0" d="M19.1,13h-8.6c-0.4,0-0.7,0-1.1,0c-0.6,0-1.1,0.3-1.5,0.7c-0.5,0.5-0.9,1.1-1.2,1.8
				c-0.1,0.2-0.3,0.8-0.4,1v0.1h0.4l0.2-0.2c0.3-0.5,0.6-0.9,1.1-1.2c0.5-0.3,1.1-0.4,1.7-0.4H10c-0.1,0.7-0.1,1.4-0.2,2
				C9.7,19,9.7,19,9.6,19.5c-0.1,1.1-0.5,2.2-1.1,3.1c-0.6,0.8-0.7,1-0.8,1.4c-0.1,0.6,0.4,1.2,1,1.2c0.2,0,0.4,0,0.5-0.1
				c0.4-0.2,0.6-0.5,0.8-0.9c0.6-1.8,0.9-3.6,1.1-5.5c0-0.2,0.3-4,0.3-4.1h3.2c-0.2,1.5-0.3,3-0.5,4.4c0,0.5-0.1,2.2,0,2.7
				c0,0.9,0.2,1.8,0.7,2.6c0.3,0.4,0.7,0.7,1.2,0.8c0.3,0.1,0.6,0.1,0.9,0c0.4-0.1,0.8-0.4,1.1-0.7c0.5-0.5,0.8-1.1,0.9-1.8
				c0.1-0.4,0.1-0.7,0.1-1.1h-0.4c0,0.2-0.1,0.4-0.1,0.6c-0.1,0.4-0.5,0.7-0.8,0.8c-0.5,0.1-1,0.1-1.4-0.2c-0.4-0.3-0.7-0.8-0.8-1.4
				c0-2.3,0.1-4.6,0.5-6.8h3.1L19.1,13z"/>
			<g class="st2">
				<path class="st0" d="M26.1,8.6c0.4,0,0.8,0,1.2,0.1l-0.2,1.4C26.7,10,26.3,9.9,26,9.9c-0.8,0-1.4,0.3-2,0.9
					c-0.6,0.6-0.8,1.4-0.8,2.4v5.2h-1.5V8.8H23l0.2,1.8h0.1c0.4-0.6,0.8-1.1,1.3-1.5S25.5,8.6,26.1,8.6z"/>
			</g>
			<g class="st2">
				<path class="st0" d="M33.4,15.8h-4.2v-0.6l1.7-1.7c0.5-0.5,0.9-0.9,1-1.1s0.3-0.4,0.4-0.7s0.1-0.4,0.1-0.7
					c0-0.3-0.1-0.6-0.3-0.8c-0.2-0.2-0.5-0.3-0.9-0.3c-0.3,0-0.5,0-0.8,0.1c-0.2,0.1-0.5,0.2-0.8,0.5L29.3,10
					c0.6-0.5,1.2-0.7,1.9-0.7c0.6,0,1.1,0.2,1.4,0.5c0.3,0.3,0.5,0.7,0.5,1.2c0,0.4-0.1,0.8-0.3,1.2c-0.2,0.4-0.7,0.9-1.3,1.5
					l-1.4,1.4v0h3.3V15.8z"/>
			</g>
		</g>
	</g>
</g>
</svg>
