<?xml version="1.0" encoding="UTF-8"?>
<svg width="50px" height="50px" viewBox="0 0 50 50" version="1.1" xmlns="http://www.w3.org/2000/svg" xmlns:xlink="http://www.w3.org/1999/xlink">
    <!-- Generator: Sketch 44 (41411) - http://www.bohemiancoding.com/sketch -->
    <title>icon/subject/social sciences</title>
    <desc>Created with Sketch.</desc>
    <defs></defs>
    <g id="Symbols" stroke="none" stroke-width="1" fill="none" fill-rule="evenodd">
        <g id="icon/subject/social-sciences" fill="#FFFFFF">
            <g id="Group-3" transform="translate(4.000000, 10.000000)">
                <path d="M37.7305,7.3198 C37.7305,11.3628 34.4535,14.6398 30.4105,14.6398 C26.3675,14.6398 23.0895,11.3628 23.0895,7.3198 C23.0895,3.2778 26.3675,-0.0002 30.4105,-0.0002 C34.4535,-0.0002 37.7305,3.2778 37.7305,7.3198" id="Fill-3"></path>
                <path d="M15.1201,10.0601 C14.0761,7.0201 10.7661,5.4021 7.7251,6.4451 C4.6851,7.4891 3.0671,10.8001 4.1111,13.8401 C4.9211,16.2001 7.1451,17.7801 9.6401,17.7691 C10.4581,17.7531 11.2641,17.5591 12.0001,17.2001 C11.3931,14.4061 12.6311,11.5361 15.0801,10.0601" id="Fill-5"></path>
                <path d="M24.0898,15.79 C24.0898,18.806 21.6458,21.25 18.6298,21.25 C15.6148,21.25 13.1698,18.806 13.1698,15.79 C13.1698,12.774 15.6148,10.33 18.6298,10.33 C21.6458,10.33 24.0898,12.774 24.0898,15.79" id="Fill-7"></path>
                <path d="M23.4102,15.6099 C23.4102,17.9569 21.5072,19.8599 19.1602,19.8599 C16.8132,19.8599 14.9102,17.9569 14.9102,15.6099 C14.9102,13.2629 16.8132,11.3599 19.1602,11.3599 C21.5072,11.3599 23.4102,13.2629 23.4102,15.6099" id="Fill-10"></path>
                <g id="Group-18" transform="translate(0.000000, 15.000000)">
                    <path d="M12.8999,4.2998 C11.7499,3.8968 10.5399,3.6868 9.3199,3.6798 C4.1799,3.6798 -0.0001,6.9998 -0.0001,11.0708 L-0.0001,14.8798 L9.9999,14.8798 C10.0219,11.2588 12.3019,8.0348 15.7099,6.8098 C14.5539,6.2578 13.5789,5.3868 12.8999,4.2998" id="Fill-12"></path>
                    <path d="M11.25,14.9199 C11.4,10.8419 14.828,7.6559 18.907,7.8069 C22.774,7.9489 25.878,11.0519 26.02,14.9199" id="Fill-14"></path>
                    <path d="M42,10.0596 C42,5.5396 37.92,1.7806 32.52,0.9596 L31.26,3.9596 L29.15,3.9596 L27.86,0.9996 C26.977,1.1616 26.112,1.4136 25.28,1.7496 C24.966,3.9576 23.575,5.8656 21.57,6.8396 C24.99,8.0536 27.281,11.2816 27.3,14.9106 L28.74,14.9106 L29.22,5.6396 L31.14,5.6396 L32,14.9406 L42,14.9996 L42,10.0596 Z" id="Fill-16"></path>
                </g>
            </g>
        </g>
    </g>
</svg>