<?xml version="1.0" encoding="UTF-8"?>
<svg width="50px" height="50px" viewBox="0 0 50 50" version="1.1" xmlns="http://www.w3.org/2000/svg" xmlns:xlink="http://www.w3.org/1999/xlink">
    <!-- Generator: Sketch 44 (41411) - http://www.bohemiancoding.com/sketch -->
    <title>icon/subject/education</title>
    <desc>Created with Sketch.</desc>
    <defs></defs>
    <g id="Symbols" stroke="none" stroke-width="1" fill="none" fill-rule="evenodd">
        <g id="icon/subject/education" fill="#FFFFFF">
            <path d="M41.21,14.49 C41.21,15.241 40.601,15.85 39.85,15.85 L22.04,15.85 C21.286,15.85 20.674,15.239 20.674,14.485 C20.674,13.731 21.286,13.12 22.04,13.12 L39.859,13.12 C40.61,13.12 41.22,13.729 41.22,14.48 M24.43,19.21 C24.43,18.467 25.026,17.861 25.77,17.85 L39.77,17.85 C40.523,17.85 41.135,18.461 41.135,19.215 C41.135,19.969 40.523,20.58 39.77,20.58 L25.77,20.58 C25.019,20.58 24.41,19.971 24.41,19.22 M44.539,35.91 L44.539,14.09 C44.539,14.09 44.539,10 40.449,10 L9.089,10 C9.089,10 5,10 5,14.09 L5,30.09 C5.783,29.479 6.737,29.13 7.73,29.09 L9.41,29.09 C6.951,27.946 5.884,25.027 7.027,22.568 C8.17,20.109 11.091,19.042 13.549,20.185 C16.008,21.328 17.075,24.248 15.932,26.708 C15.443,27.758 14.6,28.601 13.549,29.09 L16.91,29.09 L17.129,29.09 C17.571,28.979 17.973,28.748 18.29,28.42 L18.649,28.01 L22.89,23.07 C23.263,22.552 23.861,22.243 24.5,22.24 C25.604,22.24 26.5,23.135 26.5,24.24 C26.49,24.68 26.336,25.106 26.06,25.45 L22.24,30.519 C22.189,30.599 22.12,30.67 22.06,30.76 L21.96,30.889 C20.806,32.404 19.013,33.295 17.109,33.3 L16.859,33.3 L16.859,40 L40.449,40 C40.449,40 44.539,40 44.539,35.91" id="Fill-3"></path>
        </g>
    </g>
</svg>